<mxfile host="app.diagrams.net" modified="2024-01-31T04:16:14.653Z" agent="Mozilla/5.0 (Windows NT 10.0; Win64; x64) AppleWebKit/537.36 (KHTML, like Gecko) Chrome/121.0.0.0 Safari/537.36" version="23.0.2" etag="OMONGLM8c9XpZJpddb84" type="github">
  <diagram name="Halaman-1" id="hT2TjUIdVaStiMs4PkLd">
    <mxGraphModel>
      <root>
        <mxCell id="0" />
        <mxCell id="1" parent="0" />
      </root>
    </mxGraphModel>
  </diagram>
</mxfile>
